<svg xmlns="http://www.w3.org/2000/svg" xmlns:xlink="http://www.w3.org/1999/xlink" contentStyleType="text/css" data-diagram-type="DESCRIPTION" height="1252.6042px" preserveAspectRatio="none" style="width:899px;height:1252px;background:#FFFFFF;" version="1.1" viewBox="0 0 899 1252" width="899.1667px" zoomAndPan="magnify"><?plantuml 1.2026.5?><defs/><g><!--cluster H? th?ng K?t n?i Chia s? Th?c ph?m--><g class="cluster" data-qualified-name="H. th.ng K.t n.i Chia s. Th.c ph.m" data-source-line="26" id="ent0009"><rect fill="none" height="1224.1667" rx="3.3854" ry="3.3854" style="stroke:#181818;stroke-width:1.3542;" width="409.2156" x="472.2927" y="9.4792"/><text fill="#000000" font-family="'DejaVu Sans'" font-size="18.9583" font-weight="700" lengthAdjust="spacing" textLength="388.831" x="482.485" y="29.7851">H&#7879; th&#7889;ng K&#7871;t n&#7889;i Chia s&#7867; Th&#7921;c ph&#7849;m</text></g><!--entity UC_Account--><g class="entity" data-qualified-name="H. th.ng K.t n.i Chia s. Th.c ph.m.UC_Account" data-source-line="29" id="ent0010"><ellipse cx="676.2369" cy="868.0195" fill="#FFF8DC" rx="113.2014" ry="25.8903" style="stroke:#B8860B;stroke-width:0.6771;"/><text fill="#000000" font-family="'DejaVu Sans'" font-size="18.9583" font-weight="700" lengthAdjust="spacing" textLength="188.3336" x="582.07" y="874.3142">Qu&#7843;n l&#253; t&#224;i kho&#7843;n</text></g><!--entity UC_Profile--><g class="entity" data-qualified-name="H. th.ng K.t n.i Chia s. Th.c ph.m.UC_Profile" data-source-line="30" id="ent0011"><ellipse cx="676.2316" cy="650.003" fill="#FFF8DC" rx="134.2806" ry="30.1061" style="stroke:#B8860B;stroke-width:0.6771;"/><text fill="#000000" font-family="'DejaVu Sans'" font-size="18.9583" font-weight="700" lengthAdjust="spacing" textLength="235.9054" x="558.279" y="656.2978">Qu&#7843;n l&#253; h&#7891; s&#417; c&#225; nh&#226;n</text></g><!--entity UC_Chat--><g class="entity" data-qualified-name="H. th.ng K.t n.i Chia s. Th.c ph.m.UC_Chat" data-source-line="31" id="ent0012"><ellipse cx="676.2273" cy="547.0827" fill="#FFF8DC" rx="114.1533" ry="26.0807" style="stroke:#B8860B;stroke-width:0.6771;"/><text fill="#000000" font-family="'DejaVu Sans'" font-size="18.9583" font-weight="700" lengthAdjust="spacing" textLength="190.5368" x="580.9589" y="553.3775">Trao &#273;&#7893;i, nh&#7855;n tin</text></g><!--entity UC_Rank--><g class="entity" data-qualified-name="H. th.ng K.t n.i Chia s. Th.c ph.m.UC_Rank" data-source-line="32" id="ent0013"><ellipse cx="676.2353" cy="761.0392" fill="#FFF8DC" rx="146.228" ry="33.5944" style="stroke:#B8860B;stroke-width:0.6771;"/><text fill="#000000" font-family="'DejaVu Sans'" font-size="18.9583" font-weight="700" lengthAdjust="spacing" textLength="212.4759" x="569.9973" y="758.7442">Xem b&#7843;ng x&#7871;p h&#7841;ng</text><text fill="#000000" font-family="'DejaVu Sans'" font-size="18.9583" font-weight="700" lengthAdjust="spacing" textLength="158.5631" x="596.9537" y="780.8129">&amp; &#273;i&#7875;m th&#432;&#7903;ng</text></g><!--entity UC_Donation--><g class="entity" data-qualified-name="H. th.ng K.t n.i Chia s. Th.c ph.m.UC_Donation" data-source-line="35" id="ent0014"><ellipse cx="676.2236" cy="208.5403" fill="#FFF8DC" rx="151.1184" ry="33.4737" style="stroke:#B8860B;stroke-width:0.6771;"/><text fill="#000000" font-family="'DejaVu Sans'" font-size="18.9583" font-weight="700" lengthAdjust="spacing" textLength="239.9692" x="556.239" y="208.8646">Qu&#7843;n l&#253; b&#224;i quy&#234;n g&#243;p</text><text fill="#000000" font-family="'DejaVu Sans'" font-size="18.9583" font-weight="700" lengthAdjust="spacing" textLength="113.5093" x="619.4689" y="230.9333">th&#7921;c ph&#7849;m</text></g><!--entity UC_Fulfill--><g class="entity" data-qualified-name="H. th.ng K.t n.i Chia s. Th.c ph.m.UC_Fulfill" data-source-line="36" id="ent0015"><ellipse cx="676.2346" cy="92.0896" fill="#FFF8DC" rx="129.5846" ry="35.0386" style="stroke:#B8860B;stroke-width:0.6771;"/><text fill="#000000" font-family="'DejaVu Sans'" font-size="18.9583" font-weight="700" lengthAdjust="spacing" textLength="178.8545" x="586.8073" y="87.6819">&#272;&#225;p &#7913;ng y&#234;u c&#7847;u</text><text fill="#000000" font-family="'DejaVu Sans'" font-size="18.9583" font-weight="700" lengthAdjust="spacing" textLength="173.3928" x="589.5381" y="109.7505">nh&#7853;n th&#7921;c ph&#7849;m</text></g><!--entity UC_Receive--><g class="entity" data-qualified-name="H. th.ng K.t n.i Chia s. Th.c ph.m.UC_Receive" data-source-line="39" id="ent0016"><ellipse cx="676.2315" cy="440.1098" fill="#FFF8DC" rx="149.393" ry="33.1286" style="stroke:#B8860B;stroke-width:0.6771;"/><text fill="#000000" font-family="'DejaVu Sans'" font-size="18.9583" font-weight="700" lengthAdjust="spacing" textLength="232.9801" x="559.7414" y="440.0596">T&#236;m ki&#7871;m &amp; Ti&#7871;p nh&#7853;n</text><text fill="#000000" font-family="'DejaVu Sans'" font-size="18.9583" font-weight="700" lengthAdjust="spacing" textLength="113.5093" x="619.4768" y="462.1283">th&#7921;c ph&#7849;m</text></g><!--entity UC_Request--><g class="entity" data-qualified-name="H. th.ng K.t n.i Chia s. Th.c ph.m.UC_Request" data-source-line="40" id="ent0017"><ellipse cx="676.2242" cy="325.0026" fill="#FFF8DC" rx="126.2158" ry="35.1568" style="stroke:#B8860B;stroke-width:0.6771;"/><text fill="#000000" font-family="'DejaVu Sans'" font-size="18.9583" font-weight="700" lengthAdjust="spacing" textLength="170.8009" x="590.8237" y="320.0993">Qu&#7843;n l&#253; y&#234;u c&#7847;u</text><text fill="#000000" font-family="'DejaVu Sans'" font-size="18.9583" font-weight="700" lengthAdjust="spacing" textLength="173.3928" x="589.5277" y="342.168">nh&#7853;n th&#7921;c ph&#7849;m</text></g><!--entity UC_Deliver--><g class="entity" data-qualified-name="H. th.ng K.t n.i Chia s. Th.c ph.m.UC_Deliver" data-source-line="43" id="ent0018"><ellipse cx="676.2262" cy="969.588" fill="#FFF8DC" rx="125.5543" ry="28.3609" style="stroke:#B8860B;stroke-width:0.6771;"/><text fill="#000000" font-family="'DejaVu Sans'" font-size="18.9583" font-weight="700" lengthAdjust="spacing" textLength="216.4842" x="567.9841" y="975.8827">Th&#7921;c hi&#7879;n giao nh&#7853;n</text></g><!--entity UC_MngUser--><g class="entity" data-qualified-name="H. th.ng K.t n.i Chia s. Th.c ph.m.UC_MngUser" data-source-line="46" id="ent0019"><ellipse cx="676.2343" cy="1184.8939" fill="#FFF8DC" rx="122.1364" ry="27.6773" style="stroke:#B8860B;stroke-width:0.6771;"/><text fill="#000000" font-family="'DejaVu Sans'" font-size="18.9583" font-weight="700" lengthAdjust="spacing" textLength="208.7823" x="571.8431" y="1191.1887">Qu&#7843;n l&#253; ng&#432;&#7901;i d&#249;ng</text></g><!--entity UC_Dash--><g class="entity" data-qualified-name="H. th.ng K.t n.i Chia s. Th.c ph.m.UC_Dash" data-source-line="47" id="ent0020"><ellipse cx="676.2292" cy="1077.9135" fill="#FFF8DC" rx="142.5792" ry="32.3073" style="stroke:#B8860B;stroke-width:0.6771;"/><text fill="#000000" font-family="'DejaVu Sans'" font-size="18.9583" font-weight="700" lengthAdjust="spacing" textLength="216.4564" x="568.001" y="1077.6148">Theo d&#245;i &amp; th&#7889;ng k&#234;</text><text fill="#000000" font-family="'DejaVu Sans'" font-size="18.9583" font-weight="700" lengthAdjust="spacing" textLength="95.6063" x="628.4261" y="1099.6835">h&#7879; th&#7889;ng</text></g><!--entity User--><g class="entity" data-qualified-name="User" data-source-line="16" id="ent0001"><ellipse cx="343.1002" cy="620.0052" fill="#F1F1F1" rx="21.6667" ry="21.6667" style="stroke:#181818;stroke-width:0.6771;"/><path d="M343.1002,647.0885 C348.5169,647.0885 352.5794,647.0885 357.9961,641.6719 C368.8294,641.6719 379.6627,652.5052 379.6627,663.3385 L379.6627,668.7552 C379.6627,674.1719 374.2461,679.5885 368.8294,679.5885 L317.3711,679.5885 C311.9544,679.5885 306.5377,674.1719 306.5377,668.7552 L306.5377,663.3385 C306.5377,652.5052 317.3711,641.6719 328.2044,641.6719 C333.6211,647.0885 337.6836,647.0885 343.1002,647.0885" fill="#F1F1F1" style="stroke:#181818;stroke-width:0.6771;"/><text fill="#000000" font-family="'DejaVu Sans'" font-size="18.9583" font-weight="700" lengthAdjust="spacing" textLength="123.1921" x="281.5042" y="697.8632">Ng&#432;&#7901;i d&#249;ng</text></g><!--entity Donor--><g class="entity" data-qualified-name="Donor" data-source-line="17" id="ent0002"><ellipse cx="100.1863" cy="167.5104" fill="#F1F1F1" rx="21.6667" ry="21.6667" style="stroke:#181818;stroke-width:0.6771;"/><path d="M100.1863,194.5938 C105.6029,194.5938 109.6654,194.5938 115.0821,189.1771 C125.9154,189.1771 136.7488,200.0104 136.7488,210.8438 L136.7488,216.2604 C136.7488,221.6771 131.3321,227.0938 125.9154,227.0938 L74.4571,227.0938 C69.0404,227.0938 63.6238,221.6771 63.6238,216.2604 L63.6238,210.8438 C63.6238,200.0104 74.4571,189.1771 85.2904,189.1771 C90.7071,194.5938 94.7696,194.5938 100.1863,194.5938" fill="#F1F1F1" style="stroke:#181818;stroke-width:0.6771;"/><text fill="#000000" font-family="'DejaVu Sans'" font-size="18.9583" font-weight="700" lengthAdjust="spacing" textLength="181.6038" x="9.3844" y="245.3684">Ng&#432;&#7901;i quy&#234;n g&#243;p</text><text fill="#000000" font-family="'DejaVu Sans'" font-size="18.9583" font-weight="700" lengthAdjust="spacing" textLength="81.9615" x="9.3844" y="267.4371">(Donor)</text></g><!--entity Receiver--><g class="entity" data-qualified-name="Receiver" data-source-line="18" id="ent0003"><ellipse cx="100.1838" cy="399.0729" fill="#F1F1F1" rx="21.6667" ry="21.6667" style="stroke:#181818;stroke-width:0.6771;"/><path d="M100.1838,426.1563 C105.6005,426.1563 109.663,426.1563 115.0796,420.7396 C125.913,420.7396 136.7463,431.5729 136.7463,442.4063 L136.7463,447.8229 C136.7463,453.2396 131.3296,458.6563 125.913,458.6563 L74.4546,458.6563 C69.038,458.6563 63.6213,453.2396 63.6213,447.8229 L63.6213,442.4063 C63.6213,431.5729 74.4546,420.7396 85.288,420.7396 C90.7046,426.1563 94.7671,426.1563 100.1838,426.1563" fill="#F1F1F1" style="stroke:#181818;stroke-width:0.6771;"/><text fill="#000000" font-family="'DejaVu Sans'" font-size="18.9583" font-weight="700" lengthAdjust="spacing" textLength="122.3405" x="39.0135" y="476.9309">Ng&#432;&#7901;i nh&#7853;n</text><text fill="#000000" font-family="'DejaVu Sans'" font-size="18.9583" font-weight="700" lengthAdjust="spacing" textLength="109.9454" x="39.0135" y="498.9996">(Receiver)</text></g><!--entity Volunteer--><g class="entity" data-qualified-name="Volunteer" data-source-line="19" id="ent0004"><ellipse cx="100.1812" cy="713.2396" fill="#F1F1F1" rx="21.6667" ry="21.6667" style="stroke:#181818;stroke-width:0.6771;"/><path d="M100.1812,740.3229 C105.5979,740.3229 109.6604,740.3229 115.0771,734.9063 C125.9104,734.9063 136.7437,745.7396 136.7437,756.5729 L136.7437,761.9896 C136.7437,767.4063 131.3271,772.8229 125.9104,772.8229 L74.4521,772.8229 C69.0354,772.8229 63.6187,767.4063 63.6187,761.9896 L63.6187,756.5729 C63.6187,745.7396 74.4521,734.9063 85.2854,734.9063 C90.7021,740.3229 94.7646,740.3229 100.1812,740.3229" fill="#F1F1F1" style="stroke:#181818;stroke-width:0.6771;"/><text fill="#000000" font-family="'DejaVu Sans'" font-size="18.9583" font-weight="700" lengthAdjust="spacing" textLength="184.1124" x="8.125" y="791.0976">T&#236;nh nguy&#7879;n vi&#234;n</text><text fill="#000000" font-family="'DejaVu Sans'" font-size="18.9583" font-weight="700" lengthAdjust="spacing" textLength="122.646" x="8.125" y="813.1662">(Volunteer)</text></g><!--entity Admin--><g class="entity" data-qualified-name="Admin" data-source-line="24" id="ent0008"><ellipse cx="343.1001" cy="1036.8854" fill="#F1F1F1" rx="21.6667" ry="21.6667" style="stroke:#181818;stroke-width:0.6771;"/><path d="M343.1001,1063.9688 C348.5168,1063.9688 352.5793,1063.9688 357.996,1058.5521 C368.8293,1058.5521 379.6626,1069.3854 379.6626,1080.2188 L379.6626,1085.6354 C379.6626,1091.0521 374.246,1096.4688 368.8293,1096.4688 L317.371,1096.4688 C311.9543,1096.4688 306.5376,1091.0521 306.5376,1085.6354 L306.5376,1080.2188 C306.5376,1069.3854 317.371,1058.5521 328.2043,1058.5521 C333.621,1063.9688 337.6835,1063.9688 343.1001,1063.9688" fill="#F1F1F1" style="stroke:#181818;stroke-width:0.6771;"/><text fill="#000000" font-family="'DejaVu Sans'" font-size="18.9583" font-weight="700" lengthAdjust="spacing" textLength="139.2253" x="273.4875" y="1114.7434">Qu&#7843;n tr&#7883; vi&#234;n</text><text fill="#000000" font-family="'DejaVu Sans'" font-size="18.9583" font-weight="700" lengthAdjust="spacing" textLength="85.3218" x="273.4875" y="1136.8121">(Admin)</text></g><!--link Donor to User--><g class="link" data-entity-1="ent0002" data-entity-2="ent0001" data-link-type="extension" data-source-line="20" id="lnk5"><path d="M143.2438,272.3229 C159.101,297.3073 177.0167,326.4219 192.2375,353.4375 C239.3625,437.0708 277.9505,515.3702 306.4964,575.265" fill="none" id="Donor-to-User" style="stroke:#181818;stroke-width:1.3542;"/><polygon fill="none" points="316.9833,597.2688,313.8309,571.7694,299.1618,578.7607,316.9833,597.2688" style="stroke:#181818;stroke-width:1.3542;stroke-linejoin:miter;stroke-miterlimit:10;"/></g><!--link Receiver to User--><g class="link" data-entity-1="ent0003" data-entity-2="ent0001" data-link-type="extension" data-source-line="21" id="lnk6"><path d="M161.525,492.524 C198.074,524.4688 226.2765,549.0944 262.9067,581.1069" fill="none" id="Receiver-to-User" style="stroke:#181818;stroke-width:1.3542;"/><polygon fill="none" points="281.2604,597.1469,268.2534,574.989,257.56,587.2248,281.2604,597.1469" style="stroke:#181818;stroke-width:1.3542;stroke-linejoin:miter;stroke-miterlimit:10;"/></g><!--link Volunteer to User--><g class="link" data-entity-1="ent0004" data-entity-2="ent0001" data-link-type="extension" data-source-line="22" id="lnk7"><path d="M192.6979,714.7021 C222.2865,701.851 232.0207,697.6355 258.8197,686.0032" fill="none" id="Volunteer-to-User" style="stroke:#181818;stroke-width:1.3542;"/><polygon fill="none" points="281.1792,676.2979,255.5846,678.5501,262.0548,693.4564,281.1792,676.2979" style="stroke:#181818;stroke-width:1.3542;stroke-linejoin:miter;stroke-miterlimit:10;"/></g><!--link User to UC_Account--><g class="link" data-entity-1="ent0001" data-entity-2="ent0010" data-link-type="dependency" data-source-line="51" id="lnk21"><path d="M368.3604,702.9885 C388.0635,740.675 419.575,789.4792 461.4594,817.9167 C493.2688,839.5021 526.5401,850.5897 563.238,857.6314" fill="none" id="User-to-UC_Account" style="stroke:#181818;stroke-width:1.3542;"/><polygon fill="#181818" points="569.8875,858.9073,558.9391,851.291,563.238,857.6314,556.8976,861.9302,569.8875,858.9073" style="stroke:#181818;stroke-width:1.3542;stroke-linejoin:miter;stroke-miterlimit:10;"/></g><!--link User to UC_Profile--><g class="link" data-entity-1="ent0001" data-entity-2="ent0011" data-link-type="dependency" data-source-line="52" id="lnk22"><path d="M405.0583,650 C443.2458,650 487.3375,650 534.6115,650" fill="none" id="User-to-UC_Profile" style="stroke:#181818;stroke-width:1.3542;"/><polygon fill="#181818" points="541.3823,650,529.1948,644.5833,534.6115,650,529.1948,655.4167,541.3823,650" style="stroke:#181818;stroke-width:1.3542;stroke-linejoin:miter;stroke-miterlimit:10;"/></g><!--link User to UC_Chat--><g class="link" data-entity-1="ent0001" data-entity-2="ent0012" data-link-type="dependency" data-source-line="53" id="lnk23"><path d="M404.801,619.1385 C422.7167,610.7833 442.6094,602.2656 461.4594,595.8333 C501.2042,582.2646 539.7647,572.7063 578.3043,564.6625" fill="none" id="User-to-UC_Chat" style="stroke:#181818;stroke-width:1.3542;"/><polygon fill="#181818" points="584.9323,563.2792,571.8952,560.4668,578.3043,564.6625,574.1086,571.0716,584.9323,563.2792" style="stroke:#181818;stroke-width:1.3542;stroke-linejoin:miter;stroke-miterlimit:10;"/></g><!--link User to UC_Rank--><g class="link" data-entity-1="ent0001" data-entity-2="ent0013" data-link-type="dependency" data-source-line="54" id="lnk24"><path d="M404.95,680.4281 C422.8792,688.7833 442.7313,697.3958 461.4594,704.1667 C496.6135,716.8823 529.3957,726.4718 564.6312,735.5582" fill="none" id="User-to-UC_Rank" style="stroke:#181818;stroke-width:1.3542;"/><polygon fill="#181818" points="571.1875,737.249,560.7387,728.9606,564.6312,735.5582,558.0335,739.4507,571.1875,737.249" style="stroke:#181818;stroke-width:1.3542;stroke-linejoin:miter;stroke-miterlimit:10;"/></g><!--link Donor to UC_Donation--><g class="link" data-entity-1="ent0002" data-entity-2="ent0014" data-link-type="dependency" data-source-line="56" id="lnk25"><path d="M191.1135,208.5417 C280.2448,208.5417 411.8698,208.5417 517.8333,208.5417" fill="none" id="Donor-to-UC_Donation" style="stroke:#181818;stroke-width:1.3542;"/><polygon fill="#181818" points="524.6042,208.5417,512.4167,203.125,517.8333,208.5417,512.4167,213.9583,524.6042,208.5417" style="stroke:#181818;stroke-width:1.3542;stroke-linejoin:miter;stroke-miterlimit:10;"/></g><!--link Donor to UC_Fulfill--><g class="link" data-entity-1="ent0002" data-entity-2="ent0015" data-link-type="dependency" data-source-line="57" id="lnk26"><path d="M191.2219,190.1385 C217.7094,184.7083 246.7698,178.7771 273.4875,173.3333 C374.5083,152.7635 483.2195,130.7719 564.2663,114.4" fill="none" id="Donor-to-UC_Fulfill" style="stroke:#181818;stroke-width:1.3542;"/><polygon fill="#181818" points="570.9031,113.0594,557.8844,110.1631,564.2663,114.4,560.0295,120.782,570.9031,113.0594" style="stroke:#181818;stroke-width:1.3542;stroke-linejoin:miter;stroke-miterlimit:10;"/></g><!--link Receiver to UC_Receive--><g class="link" data-entity-1="ent0003" data-entity-2="ent0016" data-link-type="dependency" data-source-line="59" id="lnk27"><path d="M161.8094,440.1042 C247.6229,440.1042 400.9958,440.1042 519.6344,440.1042" fill="none" id="Receiver-to-UC_Receive" style="stroke:#181818;stroke-width:1.3542;"/><polygon fill="#181818" points="526.4052,440.1042,514.2177,434.6875,519.6344,440.1042,514.2177,445.5208,526.4052,440.1042" style="stroke:#181818;stroke-width:1.3542;stroke-linejoin:miter;stroke-miterlimit:10;"/></g><!--link Receiver to UC_Request--><g class="link" data-entity-1="ent0003" data-entity-2="ent0017" data-link-type="dependency" data-source-line="60" id="lnk28"><path d="M161.999,427.6458 C194.9458,420.8615 236.451,412.3708 273.4875,404.8958 C374.9958,384.4073 484.3789,362.6609 565.4935,346.6005" fill="none" id="Receiver-to-UC_Request" style="stroke:#181818;stroke-width:1.3542;"/><polygon fill="#181818" points="572.1354,345.2854,559.1279,342.339,565.4935,346.6005,561.2321,352.9661,572.1354,345.2854" style="stroke:#181818;stroke-width:1.3542;stroke-linejoin:miter;stroke-miterlimit:10;"/></g><!--link Volunteer to UC_Deliver--><g class="link" data-entity-1="ent0004" data-entity-2="ent0018" data-link-type="dependency" data-source-line="62" id="lnk29"><path d="M192.7792,801.6802 C264.374,837.4302 367.3448,885.6792 461.4594,918.125 C499.6604,931.2875 536.1997,940.8863 573.6695,949.3499" fill="none" id="Volunteer-to-UC_Deliver" style="stroke:#181818;stroke-width:1.3542;"/><polygon fill="#181818" points="580.274,950.8417,569.5794,942.8729,573.6695,949.3499,567.1925,953.44,580.274,950.8417" style="stroke:#181818;stroke-width:1.3542;stroke-linejoin:miter;stroke-miterlimit:10;"/></g><!--link Admin to UC_Account--><g class="link" data-entity-1="ent0008" data-entity-2="ent0010" data-link-type="dependency" data-source-line="64" id="lnk30"><path d="M376.6208,1014.2438 C396.649,980.8094 425.4792,941.9448 461.4594,918.125 C493.5125,896.9052 526.8531,885.9209 563.5104,878.8386" fill="none" id="Admin-to-UC_Account" style="stroke:#181818;stroke-width:1.3542;"/><polygon fill="#181818" points="570.1583,877.5542,557.1646,874.5478,563.5104,878.8386,559.2196,885.1844,570.1583,877.5542" style="stroke:#181818;stroke-width:1.3542;stroke-linejoin:miter;stroke-miterlimit:10;"/></g><!--link Admin to UC_MngUser--><g class="link" data-entity-1="ent0008" data-entity-2="ent0019" data-link-type="dependency" data-source-line="65" id="lnk31"><path d="M413.3729,1113.5042 C428.9323,1120.7219 445.5615,1127.8177 461.4594,1133.4375 C500.0938,1147.0875 537.307,1156.8761 575.1425,1165.3396" fill="none" id="Admin-to-UC_MngUser" style="stroke:#181818;stroke-width:1.3542;"/><polygon fill="#181818" points="581.75,1166.8177,571.0389,1158.8712,575.1425,1165.3396,568.674,1169.4432,581.75,1166.8177" style="stroke:#181818;stroke-width:1.3542;stroke-linejoin:miter;stroke-miterlimit:10;"/></g><!--link Admin to UC_Dash--><g class="link" data-entity-1="ent0008" data-entity-2="ent0020" data-link-type="dependency" data-source-line="66" id="lnk32"><path d="M413.3188,1077.9167 C448.1208,1077.9167 484.9135,1077.9167 526.4594,1077.9167" fill="none" id="Admin-to-UC_Dash" style="stroke:#181818;stroke-width:1.3542;"/><polygon fill="#181818" points="533.2302,1077.9167,521.0427,1072.5,526.4594,1077.9167,521.0427,1083.3333,533.2302,1077.9167" style="stroke:#181818;stroke-width:1.3542;stroke-linejoin:miter;stroke-miterlimit:10;"/></g><?plantuml-src ZLJBRjD05DtxAwwCr8T4fA9Ag1igjOaY9A224YeMaT34djY3xPdK7hTKm8e52pPKY2M2m0ArW7Y91OaG2rVz3_y9r-D7ndbKP54rT-RSStBkkUFJlWGf86IEAy5c8RKa4zo8FCO792G1s0C6LzRNz0hjazYNRS7b3Waec2twaEp5S9VmoDJk3OZb4OVUbKS-XQmnuOvFjGkHIsnnoBW3VU97-Wcnf0Xp83caaGZqmpYY5ebenfzVwGdVdWOlF2rKBJmlkiDZ0s0RxpgXYBdT5Bu8uLAxtTveDRCJ4TeqBAhR6njNrxQDfuQn3DUo3tIIeGNSJTvpM5c70y90XiaF24IF8QENZlw2TDFn9m8xplctTFo6WPtyvivgZZVKJm2pVcZ2l0-9u5v4mnd8VdoKd79maf-3Bbzf2Ix2LLC3gSeCYhlfw0j7m2wrA3kW6aQXod89x2IVkGlSYO_IyNCE1mmv4Rqd_9XBMi0HLnKCnQlQDHfFDdFjPLUzLY6qMibw9qv77pXwcevVL9nRTi0uyY6R-jSmgio1UHtbASkFCMqtq7y97BymQBgCG9IEnj31q-yM3D21ay34-UEObv6yWTDyny1pXI9ToeS1bXlZNpp6QsLcIc5-yWUa1ZBdpApvOCkoC5fo0HxLl8BeV0XMCioZPCvqk1sAFWPAxz09YO2putJycbrMq_oAFh5f1JcywP8Q-tqQG2yJuC0Zj6Y06aP3xdJv4dPawVXPW1PcGNcRXJ7liKkuDt5gNlgW2Dy5NlKohsg1bVLXv5pOXwZNIUjozZ8P3Y0Tdw1enCTWfQEFSPVdGOQfFaMZTkoZR_uStGLi4lzfrHZu03o6zWGOXGvJFfLRCrTrqMh1J_zlpRjqFwQHr5CvktgWRTwCyhojozHrXs5ESa9pJZHQr5ThNh7DhXmK6tV1NFb5xrTET8ixQhLhGgb0n2-61fShwoMdNLGxMM9p8fL4hlxstbJYFBNZSl8EDp82K0pv6vlHelPDVHNrMhbSUarjZ5x8uv-_QKMfIccjMaMkUklA3aKyPkl5lFM7SBCs6-N_z4-e5KjtQyNCi7y0?></g></svg>